<svg width="686" height="532" viewBox="0 0 686 532" fill="none" xmlns="http://www.w3.org/2000/svg">
<path d="M358 0.426586C380.79 0.336586 403.59 0.266586 426.38 0.216586C436.97 0.196586 447.55 0.166586 458.14 0.126586C467.38 0.0865857 476.62 0.0565857 485.85 0.0465857C490.74 0.0465857 495.62 0.0365857 500.5 0.00658569C553.41 -0.303414 599.58 10.2566 639 47.4266C640.01 48.3566 640.01 48.3566 641.04 49.3066C660.57 67.9366 673.81 93.6766 681 119.427C681.32 120.537 681.32 120.537 681.64 121.667C685.03 134.107 685.37 146.497 685.38 159.307C685.38 160.477 685.38 160.477 685.38 161.677C685.38 175.747 684.33 189.377 680.25 202.927C679.99 203.817 679.72 204.717 679.45 205.637C671.67 231.327 658.99 253.787 640.33 273.047C639.21 274.217 638.11 275.397 637.02 276.597C612.94 302.317 578.53 313.327 545 319.427C524.21 319.427 503.42 319.427 482 319.427C482 389.387 482 459.347 482 531.427C474.14 524.687 474.14 524.687 470.66 521.147C469.91 520.387 469.15 519.627 468.38 518.847C466.84 517.277 465.3 515.717 463.76 514.147C459.61 509.947 455.38 505.947 450.9 502.107C447.79 499.357 444.9 496.397 442 493.427C436.69 488.037 436.69 488.037 431.06 482.987C426.3 478.967 421.99 474.467 417.63 470.017C414.52 466.877 411.38 463.847 408.03 460.957C403.09 456.697 398.57 452.047 394 447.387C390.84 444.197 387.67 441.097 384.25 438.177C378.54 433.257 373.3 427.837 368 422.487C366.93 421.417 365.86 420.337 364.79 419.257C362.19 416.657 359.59 414.037 357 411.427C359.81 408.567 362.62 405.807 365.75 403.297C366.43 402.747 367.12 402.187 367.82 401.617C368.54 401.037 369.26 400.457 370 399.867C394.82 379.587 415.16 356.427 431 328.427C431.45 327.637 431.91 326.837 432.37 326.017C451.3 292.507 463 253.427 463.2 214.747C463.21 213.857 463.21 212.957 463.22 212.037C463.23 210.157 463.24 208.277 463.24 206.397C463.25 203.597 463.28 200.787 463.31 197.977C463.39 185.527 462.24 173.667 460 161.427C459.81 160.327 459.61 159.227 459.41 158.097C452.16 118.837 434.74 83.5566 410 52.4266C409.56 51.8766 409.13 51.3166 408.68 50.7466C401.84 42.1666 394.16 34.3866 386.44 26.6166C385.95 26.1266 385.47 25.6366 384.97 25.1366C378.33 18.4366 371.4 12.2766 364 6.42659C361.97 4.78659 359.97 3.13659 358 1.42659C358 1.09659 358 0.766586 358 0.426586Z" fill="#FF7A0D"/>
<path d="M211.56 0.066985C229.88 -0.023015 247.61 1.70679 265.44 6.11679C266.47 6.36676 267.51 6.62636 268.58 6.88632C304.89 16.1363 336.02 34.7164 363 60.4264C363.78 61.1564 364.56 61.8766 365.36 62.6266C393.9 90.0065 413.04 129.286 419.57 167.976C419.86 169.646 420.19 171.316 420.54 172.976C422.46 182.786 422.4 192.597 422.38 202.546C422.37 203.946 422.37 203.947 422.37 205.367C422.33 220.717 421.38 235.406 418 250.426C417.69 251.826 417.69 251.827 417.38 253.247C406.71 300.417 377.76 345.546 338 373.426C337.19 374.016 337.19 374.017 336.36 374.617C310.58 393.197 280.79 404.866 249.69 410.676C248.82 410.836 247.95 411.006 247.05 411.176C232.68 413.706 218.31 413.567 203.78 413.537H196.98C190.95 413.537 184.92 413.537 178.89 413.527C173.21 413.527 167.54 413.526 161.87 413.516C145.31 413.516 128.75 413.507 112.19 413.487C75.1704 413.467 38.14 413.446 0 413.426V0.42636C56.77 0.33636 56.7704 0.336907 114.69 0.236907C126.61 0.216907 138.53 0.186828 150.81 0.156829C165.439 0.146829 165.44 0.14632 172.31 0.136321C177.07 0.136321 181.83 0.127024 186.59 0.107024C192.69 0.0870245 198.79 0.0865163 204.89 0.0865163C207.11 0.0865163 209.34 0.0769844 211.56 0.066985ZM199.99 101.006C197.81 101.026 195.62 101.036 193.43 101.046C190.24 101.046 190.24 101.047 183.46 101.067C177.82 101.107 172.35 101.136 166.88 101.176C148.9 101.256 131.45 101.346 114 101.426V311.426C140.54 311.516 140.54 311.517 166.56 311.617C174.31 311.657 182.05 311.697 189.8 311.707C191.91 311.717 194.02 311.716 196.13 311.716C228.43 311.946 258 305.646 282.19 282.676C303.35 260.106 315.2 232.426 314.25 201.377C313.13 176.807 303.62 149.396 285.04 132.226C284.35 131.616 283.67 131.016 283 130.426C259.28 108.556 231.83 100.716 199.99 101.006Z" fill="#75563C"/>
</svg>
